<svg xmlns="http://www.w3.org/2000/svg" version="1.1" xmlns:xlink="http://www.w3.org/1999/xlink" xmlns:svgjs="http://svgjs.com/svgjs" width="1600" height="768" preserveAspectRatio="none" viewBox="0 0 1600 768"><g mask="url(&quot;#SvgjsMask1012&quot;)" fill="none"><rect width="1600" height="768" x="0" y="0" fill="rgba(199, 220, 241, 1)"></rect><path d="M1286.004,492.985C1329.423,489.125,1359.159,455.089,1382.433,418.233C1408.121,377.555,1438.5,330.048,1415.623,287.725C1392.148,244.295,1335.367,239.143,1286.004,239.837C1238.226,240.509,1188.926,251.441,1162.548,291.283C1133.469,335.203,1126.978,393.571,1154.476,438.498C1181.029,481.88,1235.341,497.489,1286.004,492.985" fill="rgba(28, 83, 142, 0.4)" class="triangle-float2"></path><path d="M142.7991604705606 630.9510958634567L217.6616264143177 425.2681611182933-62.88377427460276 556.0886299196995z" fill="rgba(28, 83, 142, 0.4)" class="triangle-float3"></path><path d="M1003.4883912357755 663.1582623987425L989.9812389705411 534.6462930086253 803.9668610179824 619.1630061015354z" fill="rgba(28, 83, 142, 0.4)" class="triangle-float1"></path><path d="M-82.966784732062 498.00609410887273L-47.00260846484652 615.6396142241199 111.46558357441643 502.8765897656731z" fill="rgba(28, 83, 142, 0.4)" class="triangle-float3"></path><path d="M1656.165,950.732C1714.993,947.817,1763.27,909.296,1792.637,858.239C1821.908,807.349,1829.905,746.804,1803.667,694.287C1774.362,635.632,1721.711,583.388,1656.165,585.084C1592.519,586.731,1552.552,646.114,1521.32,701.594C1490.896,755.638,1464.543,818.494,1494.064,873.036C1524.634,929.516,1592.022,953.911,1656.165,950.732" fill="rgba(28, 83, 142, 0.4)" class="triangle-float3"></path><path d="M869.535,589.484C901.818,590.282,930.405,571.292,947.636,543.98C966.263,514.456,977.615,476.786,959.438,446.983C941.744,417.971,903.485,414.455,869.535,415.925C838.724,417.259,807.579,427.507,792.176,454.225C776.788,480.917,782.551,513.532,797.847,540.277C813.27,567.243,838.479,588.716,869.535,589.484" fill="rgba(28, 83, 142, 0.4)" class="triangle-float1"></path><path d="M953.382,442.849C1033.144,443.361,1121.881,430.66,1161.204,361.263C1200.18,292.478,1163.304,211.365,1123.135,143.27C1083.843,76.66,1030.713,9.73,953.382,8.955C875.104,8.17,816.968,72.126,777.628,139.805C738.032,207.924,710.601,290.466,750.13,358.624C789.565,426.619,874.781,442.345,953.382,442.849" fill="rgba(28, 83, 142, 0.4)" class="triangle-float1"></path></g><defs><mask id="SvgjsMask1012"><rect width="1600" height="768" fill="#ffffff"></rect></mask><style>
            @keyframes float1 {
                0%{transform: translate(0, 0)}
                50%{transform: translate(-10px, 0)}
                100%{transform: translate(0, 0)}
            }

            .triangle-float1 {
                animation: float1 5s infinite;
            }

            @keyframes float2 {
                0%{transform: translate(0, 0)}
                50%{transform: translate(-5px, -5px)}
                100%{transform: translate(0, 0)}
            }

            .triangle-float2 {
                animation: float2 4s infinite;
            }

            @keyframes float3 {
                0%{transform: translate(0, 0)}
                50%{transform: translate(0, -10px)}
                100%{transform: translate(0, 0)}
            }

            .triangle-float3 {
                animation: float3 6s infinite;
            }
        </style></defs></svg>